<svg width="100" height="100" viewBox="0 0 100 100" fill="none" xmlns="http://www.w3.org/2000/svg">
<circle cx="50" cy="50" r="50" fill="#FDF0B8"/>
<path d="M64.4 63.2C61.736 63.2 59.6 65.158 59.6 67.6C59.6 68.767 60.1057 69.8861 61.0059 70.7113C61.9061 71.5364 63.127 72 64.4 72C65.673 72 66.8939 71.5364 67.7941 70.7113C68.6943 69.8861 69.2 68.767 69.2 67.6C69.2 66.433 68.6943 65.3139 67.7941 64.4887C66.8939 63.6636 65.673 63.2 64.4 63.2ZM26 28V32.4H30.8L39.44 49.098L36.176 54.488C35.816 55.104 35.6 55.83 35.6 56.6C35.6 57.767 36.1057 58.8861 37.0059 59.7113C37.9061 60.5364 39.127 61 40.4 61H69.2V56.6H41.408C41.2489 56.6 41.0963 56.5421 40.9837 56.4389C40.8712 56.3358 40.808 56.1959 40.808 56.05C40.808 55.94 40.832 55.852 40.88 55.786L43.04 52.2H60.92C62.72 52.2 64.304 51.276 65.12 49.934L73.712 35.7C73.88 35.348 74 34.974 74 34.6C74 34.0165 73.7471 33.4569 73.2971 33.0444C72.847 32.6318 72.2365 32.4 71.6 32.4H36.104L33.848 28M40.4 63.2C37.736 63.2 35.6 65.158 35.6 67.6C35.6 68.767 36.1057 69.8861 37.0059 70.7113C37.9061 71.5364 39.127 72 40.4 72C41.673 72 42.8939 71.5364 43.7941 70.7113C44.6943 69.8861 45.2 68.767 45.2 67.6C45.2 66.433 44.6943 65.3139 43.7941 64.4887C42.8939 63.6636 41.673 63.2 40.4 63.2Z" fill="#9F7D4E"/>
</svg>
