<svg width="100" height="100" viewBox="0 0 100 100" fill="none" xmlns="http://www.w3.org/2000/svg">
<circle cx="50" cy="50" r="50" fill="#FDF0B8"/>
<path d="M50 72L46.52 68.8828C42.48 65.2461 39.14 62.109 36.5 59.4714C33.86 56.8338 31.76 54.4655 30.2 52.3666C28.64 50.2678 27.5504 48.3399 26.9312 46.5831C26.312 44.8263 26.0016 43.0279 26 41.188C26 37.4314 27.26 34.2943 29.78 31.7766C32.3 29.2589 35.44 28 39.2 28C41.28 28 43.26 28.4396 45.14 29.3188C47.02 30.198 48.64 31.4369 50 33.0354C51.36 31.4369 52.98 30.198 54.86 29.3188C56.74 28.4396 58.72 28 60.8 28C64.56 28 67.7 29.2589 70.22 31.7766C72.74 34.2943 74 37.4314 74 41.188C74 43.0263 73.6904 44.8247 73.0712 46.5831C72.452 48.3415 71.3616 50.2694 69.8 52.3666C68.2384 54.4639 66.1384 56.8322 63.5 59.4714C60.8616 62.1106 57.5216 65.2477 53.48 68.8828L50 72Z" fill="#9F7D4E"/>
</svg>
