<svg width="100" height="100" viewBox="0 0 100 100" fill="none" xmlns="http://www.w3.org/2000/svg">
<circle cx="50" cy="50" r="50" fill="#846C25"/>
<path d="M50.5 29C39.1804 29 30 38.1754 30 49.5C30 60.8246 39.1804 70 50.5 70C61.823 70 71 60.8246 71 49.5C71 38.1754 61.8246 29 50.5 29ZM50.5 33.9866C53.5751 33.9866 56.4374 34.8975 58.8509 36.4467L37.4467 57.8509C35.8401 55.362 34.9859 52.4624 34.9866 49.5C34.9866 40.9463 41.9463 33.9866 50.5 33.9866ZM50.5 65.0134C47.5378 65.0131 44.6384 64.159 42.1491 62.5533L63.5516 41.1491C65.1582 43.638 66.0124 46.5376 66.0117 49.5C66.0117 58.0537 59.0537 65.0134 50.5 65.0134Z" fill="#E6F0C4"/>
</svg>
