<svg width="100" height="100" viewBox="0 0 100 100" fill="none" xmlns="http://www.w3.org/2000/svg">
<circle cx="50" cy="50" r="50" fill="#846C25"/>
<path d="M49.5 60.0476C50.8592 60.0476 52.1628 59.5861 53.1239 58.7645C54.085 57.9429 54.625 56.8286 54.625 55.6667C54.625 54.5048 54.085 53.3905 53.1239 52.5689C52.1628 51.7473 50.8592 51.2857 49.5 51.2857C48.1408 51.2857 46.8372 51.7473 45.8761 52.5689C44.915 53.3905 44.375 54.5048 44.375 55.6667C44.375 56.8286 44.915 57.9429 45.8761 58.7645C46.8372 59.5861 48.1408 60.0476 49.5 60.0476ZM64.875 40.3333C66.2342 40.3333 67.5378 40.7949 68.4989 41.6165C69.46 42.4381 70 43.5524 70 44.7143V66.619C70 67.7809 69.46 68.8953 68.4989 69.7168C67.5378 70.5384 66.2342 71 64.875 71H34.125C32.7658 71 31.4622 70.5384 30.5011 69.7168C29.54 68.8953 29 67.7809 29 66.619V44.7143C29 43.5524 29.54 42.4381 30.5011 41.6165C31.4622 40.7949 32.7658 40.3333 34.125 40.3333H36.6875V35.9524C36.6875 33.0476 38.0374 30.2618 40.4402 28.2079C42.843 26.1539 46.1019 25 49.5 25C51.1826 25 52.8486 25.2833 54.4031 25.8337C55.9576 26.3841 57.3701 27.1909 58.5598 28.2079C59.7496 29.2249 60.6933 30.4323 61.3372 31.7611C61.9811 33.0899 62.3125 34.5141 62.3125 35.9524V40.3333H64.875ZM49.5 29.381C47.4611 29.381 45.5058 30.0733 44.0641 31.3057C42.6224 32.5381 41.8125 34.2095 41.8125 35.9524V40.3333H57.1875V35.9524C57.1875 34.2095 56.3776 32.5381 54.9359 31.3057C53.4942 30.0733 51.5389 29.381 49.5 29.381Z" fill="#E6F0C4"/>
</svg>
