<svg width="100" height="100" viewBox="0 0 100 100" fill="none" xmlns="http://www.w3.org/2000/svg">
<circle cx="50" cy="50" r="50" fill="#FDF0B8"/>
<path d="M33 72V66.4444C33 63.4976 34.194 60.6714 36.3195 58.5877C38.4449 56.504 41.3275 55.3333 44.3333 55.3333H55.6667C58.6725 55.3333 61.5551 56.504 63.6805 58.5877C65.806 60.6714 67 63.4976 67 66.4444V72M38.6667 33.1111C38.6667 36.058 39.8607 38.8841 41.9861 40.9679C44.1115 43.0516 46.9942 44.2222 50 44.2222C53.0058 44.2222 55.8885 43.0516 58.0139 40.9679C60.1393 38.8841 61.3333 36.058 61.3333 33.1111C61.3333 30.1643 60.1393 27.3381 58.0139 25.2544C55.8885 23.1706 53.0058 22 50 22C46.9942 22 44.1115 23.1706 41.9861 25.2544C39.8607 27.3381 38.6667 30.1643 38.6667 33.1111Z" stroke="#9F7D4E" stroke-width="5" stroke-linecap="round" stroke-linejoin="round"/>
</svg>
