<svg width="80" height="84" viewBox="0 0 80 84" fill="none" xmlns="http://www.w3.org/2000/svg">
<g filter="url(#filter0_d_292_17)">
<path d="M73.3815 66.2206C73.1217 66.0922 72.8745 65.9704 72.6699 65.8631C71.5188 65.2407 70.3571 64.1536 70.5617 62.9657C70.9923 60.3755 71.0759 59.1519 70.4746 58.2874C70.151 57.8256 69.6722 57.4721 69.1101 57.2799V57.2701C69.3609 56.8541 69.5121 56.3504 69.6135 55.6256C69.8697 53.8381 68.724 48.4756 67.1763 44.1369C65.7388 40.1264 61.9744 36.0119 59.2241 32.9959L58.5818 32.2906C54.3335 27.5895 54.2517 26.0847 53.8585 18.8567C53.8016 17.8054 53.7358 16.6142 53.6504 15.2817C53.138 7.13237 48.5357 3 39.9964 3C35.5133 3 32.0585 4.16187 29.728 6.45475C27.8618 8.28937 26.8317 10.8 26.8317 13.5267C26.8317 18.3237 27.1875 22.1393 27.2142 22.3489C27.4633 28.1501 27.3921 29.0471 25.7358 31.7007C25.3391 32.3394 24.245 33.4671 23.0869 34.6599C21.5783 36.215 19.8686 37.9765 18.9311 39.4081C18.2604 40.4335 17.885 41.4605 17.4883 42.5492C16.8834 44.2084 16.1968 46.0885 14.2594 48.4919C12.0232 51.2657 11.4984 53.3035 12.3025 56.2025C11.4236 57.2506 11.4432 58.5376 11.4574 59.4899C11.4825 59.8205 11.4646 60.1527 11.4041 60.4795C10.9967 61.7129 9.19454 62.007 7.49024 62.1337C7.20915 62.1532 6.93874 62.1679 6.68079 62.1809C5.38922 62.2442 4.27378 62.3011 3.63333 63.2046C3.01601 64.0756 3.43408 65.4471 4.01404 67.3451C4.14213 67.7644 4.27378 68.1982 4.40364 68.6549C4.7292 69.7924 4.37518 70.3579 3.92687 71.0664C3.49279 71.7505 3 72.5289 3 73.9182C3 76.3021 6.55803 76.8432 10.6587 77.4835C11.968 77.685 13.3272 77.8946 14.6846 78.1725C16.7526 78.6037 18.7799 79.1841 20.7475 79.908C22.4767 80.5141 23.843 80.9935 25.4494 80.9935C28.3279 80.9935 30.4751 79.4059 32.5513 77.8719L32.9337 77.5875C33.9175 76.8579 36.7586 76.9375 39.0429 76.996C39.6584 77.0122 40.2402 77.0285 40.7596 77.0285H41.8662C44.2643 77.0155 47.5484 76.9992 49.379 77.4347C50.0461 77.5972 50.482 78.0392 51.0317 78.6031C52.076 79.6691 53.3747 81 56.9718 81C60.4213 81 62.2288 79.5846 64.3227 77.945C65.5965 76.9489 66.913 75.917 68.7827 75.0427C69.4801 74.7177 70.1383 74.4139 70.7539 74.1311C74.7816 72.2819 77 71.263 77 69.6104C77 68 74.8225 66.9291 73.3815 66.2206ZM32.0104 14.7617C32.4967 14.7793 32.9665 14.9274 33.361 15.1875C33.7556 15.4476 34.0575 15.8082 34.2289 16.2242C34.5758 17.1261 34.5509 17.9175 34.2662 18.327C34.2662 18.327 34.2271 18.1645 34.2022 18.093C34.0242 17.5135 33.6156 17.0156 33.0565 16.6971C32.8236 16.5597 32.5621 16.4675 32.2885 16.4264C32.0149 16.3853 31.7349 16.3962 31.4661 16.4582C30.7082 16.6419 29.9699 17.2707 29.881 19.5116C28.963 17.8102 29.47 16.5866 30.0446 15.7741C30.4556 15.168 31.3735 14.7455 32.0104 14.7617ZM28.8972 75.6992C28.6107 78.2765 25.622 78.2375 24.7129 78.1709C22.9677 78.0376 20.8596 77.4087 18.819 76.801C18.0149 76.5621 17.1841 76.3135 16.3764 76.0957C14.0281 75.4636 11.018 75.0005 8.59857 74.6332C8.02572 74.5439 7.48312 74.461 6.98856 74.3814C6.49399 74.3017 6.16843 74.175 6.06347 74.0076C5.88557 73.7395 6.13107 73.1545 6.40682 72.4785C6.77685 71.575 7.28209 70.3302 7.26253 68.8125C7.26253 68.1771 7.00101 67.4637 6.75729 66.7715C6.46908 65.959 6.17377 65.1189 6.41393 64.7207C6.63275 64.3584 7.61477 64.3161 8.47759 64.3161H8.87965C9.5112 64.3161 10.0574 64.3259 10.4363 64.23C11.5944 63.9359 13.0799 63.1055 13.6047 61.9745C13.7648 61.6219 13.8484 60.8467 13.9605 59.6995C14.0263 59.03 14.0922 58.3394 14.1776 57.9802C14.1986 57.8885 14.2437 57.8029 14.3091 57.7307C14.3746 57.6585 14.4582 57.6019 14.5529 57.5659C14.8465 57.4407 15.7591 57.2555 17.8672 58.2289C19.8562 59.147 21.9376 62.4279 23.9515 65.6015C24.5848 66.5992 25.1826 67.5417 25.7839 68.4225C28.2816 72.0852 29.1338 73.5575 28.8972 75.7025V75.6992ZM51.818 70.5707C51.6041 71.1812 51.3333 71.7738 51.0086 72.342C50.9978 72.3642 50.9781 72.3817 50.9536 72.391C50.929 72.4002 50.9015 72.4005 50.8768 72.3917C50.8521 72.3829 50.832 72.3658 50.8207 72.3438C50.8095 72.3218 50.8079 72.2967 50.8164 72.2737C51.121 71.3011 51.2478 70.2892 51.1918 69.2789C51.1473 68.5102 51.1206 68.0455 50.7186 67.896C50.3165 67.7465 49.9607 68.0309 49.0374 68.7962C48.8417 68.9587 48.6176 69.144 48.3649 69.3487C46.4436 70.8876 43.5829 72.7092 38.4718 73.1464C35.476 73.4047 33.5635 72.394 32.9711 71.8236C32.9363 71.7898 32.8945 71.7626 32.8482 71.7436C32.8018 71.7246 32.7518 71.7142 32.701 71.713C32.6502 71.7118 32.5997 71.7198 32.5523 71.7366C32.5049 71.7533 32.4616 71.7785 32.4249 71.8106C32.3735 71.8588 32.3377 71.9192 32.3217 71.9849C32.3057 72.0506 32.31 72.1191 32.3342 72.1827C32.7114 73.2942 32.5477 74.175 32.247 74.8136C32.078 75.1711 31.9179 75.1467 31.8912 74.7584C31.8468 74.0044 31.7133 73.1529 31.3575 72.4525C30.8043 71.3247 30.1122 70.1222 29.776 69.547V69.5389C30.3524 69.2967 31.3522 68.754 31.7987 67.7709C32.2453 66.7877 32.5957 64.8459 30.0517 62.6131C28.9345 61.63 26.1201 59.8246 23.6366 58.2256C21.6975 56.9825 19.6925 55.6971 19.4292 55.3802C18.6304 54.4231 18.296 53.869 18.1946 52.1871C18.207 51.8134 18.2177 51.4412 18.2284 51.0675L18.2764 50.6629C18.2797 50.6402 18.2919 50.6194 18.3107 50.6043C18.3295 50.5893 18.3537 50.581 18.3787 50.581C18.4037 50.581 18.4279 50.5893 18.4467 50.6043C18.4655 50.6194 18.4777 50.6402 18.481 50.6629C18.554 51.1971 18.6729 51.7252 18.8368 52.2424C19.0289 52.8485 19.2638 53.4741 19.4808 53.7341C20.0483 54.4199 20.8258 54.935 21.5569 55.1137C21.7046 55.1609 21.8625 55.1748 22.0173 55.1545C22.1721 55.1341 22.3193 55.08 22.4464 54.9968C22.9677 54.6181 22.9179 53.7617 22.836 52.3415C22.7524 50.879 22.6386 48.8737 23.1652 46.7271C24.165 42.6646 25.1061 41.4442 26.298 39.9021C26.451 39.7039 26.6093 39.5008 26.7694 39.2863C27.0256 38.9483 27.3032 38.62 27.6002 38.2739C28.9292 36.7123 30.4342 34.9442 30.0766 31.6195C29.9859 30.7761 29.9414 30.1846 29.9236 29.7686C29.9181 29.7307 29.9275 29.6922 29.95 29.6599C29.9725 29.6277 30.0068 29.6037 30.0467 29.5922C30.0867 29.5808 30.1298 29.5826 30.1685 29.5973C30.2072 29.612 30.2389 29.6387 30.2581 29.6727L30.3453 29.7979L30.5605 30.1229C31.4251 31.4229 32.9871 33.7905 35.0259 33.7905C35.1666 33.7903 35.3071 33.7789 35.4457 33.7564C39.6068 33.1178 44.6788 28.8407 44.7268 28.7985C45.2819 28.311 45.2321 27.8008 45.0186 27.5131C44.8941 27.3504 44.7107 27.2332 44.5007 27.182C44.2908 27.1309 44.0678 27.1492 43.8711 27.2336C43.2858 27.4611 42.6009 27.7455 41.8751 28.0461C39.4165 29.065 35.2927 30.768 34.3587 30.3764C33.9329 30.1615 33.5522 29.8792 33.2344 29.5427C33.2151 29.5306 33.1987 29.5151 33.186 29.4971C33.1732 29.4791 33.1645 29.459 33.1603 29.438C33.1561 29.4169 33.1565 29.3953 33.1614 29.3744C33.1663 29.3535 33.1757 29.3337 33.189 29.3161C33.2024 29.2985 33.2193 29.2834 33.239 29.2718C33.2587 29.2602 33.2807 29.2522 33.3037 29.2484C33.3268 29.2445 33.3504 29.2449 33.3733 29.2494C33.3962 29.2539 33.4179 29.2625 33.4372 29.2746C34.4317 29.6467 35.1362 29.5102 35.9634 29.2616L36.1413 29.2064C37.8083 28.7042 38.6675 28.4312 41.6136 27.2434C42.5447 26.8446 43.5127 26.5221 44.5063 26.2797C45.2179 26.1172 45.6484 26.0149 45.8779 25.5745C45.9853 25.3937 46.0341 25.1886 46.0183 24.9833C46.0025 24.7781 45.923 24.5812 45.7889 24.4159C45.5167 24.112 45.0649 23.9982 44.5436 24.1071C43.9708 24.229 43.7075 24.5946 43.4033 24.8367C42.9763 25.1699 42.5137 25.5127 40.3451 26.2424C35.5418 27.8674 34.1933 27.9665 32.3022 26.7997C30.5516 25.7126 29.607 24.6499 29.607 24.1998C29.607 23.8536 30.5765 23.2735 31.1565 22.9257C31.3931 22.7844 31.6173 22.6511 31.8005 22.526C32.5726 22.0028 34.1132 20.6751 34.1808 20.6199C35.1415 19.7407 37.3671 20.2656 38.6284 21.0391C38.6717 21.0687 38.7212 21.0899 38.7738 21.1013C38.8265 21.1128 38.8811 21.1143 38.9344 21.1057C38.9846 21.0969 39.0323 21.0789 39.0747 21.0528C39.1171 21.0268 39.1533 20.9932 39.1812 20.9541C39.2091 20.9149 39.2281 20.8711 39.237 20.8251C39.246 20.7791 39.2447 20.732 39.2332 20.6865C38.4861 17.8492 39.2101 16.2437 39.9449 15.3971C40.3182 14.9705 40.7912 14.6254 41.3292 14.387C41.8672 14.1486 42.4566 14.0229 43.0546 14.0191C45.3335 14.0191 46.9257 15.6441 46.9257 17.9874C46.9257 19.7749 46.424 20.7157 45.9508 21.2861C45.9243 21.3176 45.8907 21.3435 45.8524 21.3623C45.8141 21.381 45.7719 21.3921 45.7285 21.3949C45.6851 21.3977 45.6416 21.392 45.6008 21.3783C45.56 21.3646 45.5229 21.3431 45.4918 21.3154C45.4416 21.2689 45.41 21.2083 45.4023 21.1434C45.3945 21.0785 45.411 21.0131 45.4491 20.9579C45.843 20.341 46.0488 19.6391 46.0451 18.925C46.0473 18.5664 45.9711 18.211 45.8209 17.8796C45.6707 17.5482 45.4497 17.2476 45.1706 16.9953C44.8916 16.743 44.5602 16.5441 44.1959 16.4103C43.8317 16.2765 43.4418 16.2105 43.0492 16.2161C42.3483 16.2161 40.6511 16.4599 40.0658 18.7251C39.9228 19.316 39.9023 19.9262 40.0053 20.524L40.0196 20.6394C40.1797 21.8386 42.7415 22.6722 44.8638 23.1597C46.8848 23.6229 47.1766 24.1705 46.4365 26.3496C45.6964 28.5287 46.9898 30.612 47.4505 31.1547C48.0131 31.7855 48.5082 32.464 48.9289 33.1811C49.4131 34.0378 49.8074 34.9345 50.1066 35.8591C50.4926 36.9625 50.8271 37.9147 51.9977 39.3074C53.9671 41.6474 55.1394 47.2114 54.6662 51.9824C54.6289 52.374 54.5719 52.6795 54.5292 52.9037C54.4527 53.3149 54.4011 53.5863 54.6466 53.778C54.8922 53.9698 55.2088 53.8917 55.9382 53.6756L56.5484 53.4985C57.2839 53.3066 58.0312 53.1547 58.7864 53.0435C58.8466 53.0349 58.9037 53.0133 58.9529 52.9806C59.0021 52.9478 59.042 52.9047 59.0693 52.855C59.6795 51.7321 59.7542 50.3817 59.7809 49.2036C59.7809 49.0617 59.7844 48.9106 59.7916 48.7502C59.8254 47.4876 59.8716 45.6741 59.2668 43.5503C59.2517 43.5087 59.2553 43.4633 59.2768 43.4241C59.2983 43.385 59.336 43.3552 59.3815 43.3414C59.427 43.3276 59.4767 43.3309 59.5196 43.3506C59.5624 43.3703 59.595 43.4047 59.6101 43.4462C60.2192 44.7717 60.6182 46.1697 60.7949 47.5981C61.2486 51.2674 60.4569 52.8127 60.4498 52.8257C60.4314 52.8595 60.4213 52.8965 60.42 52.9341C60.4187 52.9718 60.4263 53.0093 60.4424 53.044C60.4584 53.0787 60.4825 53.1099 60.513 53.1353C60.5434 53.1607 60.5795 53.1799 60.6188 53.1914C61.0934 53.3468 61.5183 53.6076 61.8552 53.9503C62.115 54.22 62.0207 54.3402 61.6524 54.2135C60.9258 53.9659 60.1562 53.8398 59.3806 53.8414C57.5304 53.8414 56.1624 54.6457 55.5539 55.3347C54.9864 55.975 54.8957 56.5811 54.8726 57.1661L54.8619 57.1742C53.5312 57.0524 52.5599 57.3709 51.754 58.1834L51.7397 58.198C50.6261 59.4574 51.0281 62.2004 51.5102 64.451C51.738 65.4991 52.5047 68.598 51.818 70.574V70.5707ZM68.9144 72.2071C66.1195 73.2975 64.3903 74.565 62.8657 75.683C61.8606 76.4191 60.9088 77.1146 59.7916 77.6557C57.9912 78.5235 55.36 78.7169 53.8728 76.4045C53.4511 75.7545 53.7465 74.8022 54.1539 73.4876C54.6965 71.7407 55.4401 69.3504 54.8139 66.232C54.6467 65.4 54.499 64.6866 54.3709 64.0691C53.8728 61.6625 53.6771 60.7574 53.8728 60.0375C53.9849 59.6394 54.483 59.55 54.9171 59.55C55.0736 59.5513 55.2298 59.5616 55.3849 59.5809C55.6216 60.318 56.0487 60.9923 56.6303 61.5471C57.6443 62.4994 59.0551 62.982 60.8216 62.9853C61.1952 63.0129 65.4364 63.2371 67.3221 59.3452C67.5819 59.3745 67.9715 59.459 68.0871 59.719C68.3148 60.2374 68.0391 61.1669 67.8167 61.9127C67.6566 62.4506 67.5178 62.9137 67.5267 63.2729C67.5819 65.8729 69.4837 66.9746 72.1219 68.4989C72.4404 68.6825 72.7731 68.8742 73.1093 69.0741C73.4455 69.274 73.6199 69.4625 73.6199 69.625C73.5274 70.4034 70.0618 71.7635 68.9144 72.2104V72.2071Z" fill="#846C25"/>
</g>
<defs>
<filter id="filter0_d_292_17" x="0.5" y="0.5" width="79" height="83" filterUnits="userSpaceOnUse" color-interpolation-filters="sRGB">
<feFlood flood-opacity="0" result="BackgroundImageFix"/>
<feColorMatrix in="SourceAlpha" type="matrix" values="0 0 0 0 0 0 0 0 0 0 0 0 0 0 0 0 0 0 127 0" result="hardAlpha"/>
<feOffset/>
<feGaussianBlur stdDeviation="1.25"/>
<feComposite in2="hardAlpha" operator="out"/>
<feColorMatrix type="matrix" values="0 0 0 0 0 0 0 0 0 0 0 0 0 0 0 0 0 0 0.19 0"/>
<feBlend mode="normal" in2="BackgroundImageFix" result="effect1_dropShadow_292_17"/>
<feBlend mode="normal" in="SourceGraphic" in2="effect1_dropShadow_292_17" result="shape"/>
</filter>
</defs>
</svg>
