<svg width="100" height="100" viewBox="0 0 100 100" fill="none" xmlns="http://www.w3.org/2000/svg">
<circle cx="50" cy="50" r="50" fill="#846C25"/>
<path d="M40.8308 47.353L40.8417 47.3462C40.9358 47.2928 41.032 47.2431 41.1301 47.1972C41.3351 47.1002 41.6358 46.9717 42.0034 46.8542C42.7414 46.6178 43.7186 46.4401 44.734 46.6191C44.909 46.6432 45.0866 46.5985 45.2294 46.4945C45.3723 46.3905 45.4692 46.2352 45.5 46.0612C45.5308 45.8872 45.4929 45.708 45.3945 45.5613C45.296 45.4146 45.1445 45.3117 44.9718 45.2743C43.6639 45.042 42.453 45.2743 41.5879 45.5518C41.1253 45.6989 40.6766 45.8869 40.2472 46.1135L40.1652 46.1599L40.1406 46.1736L40.1324 46.1777L40.1297 46.1791L40.1283 46.1804C39.9728 46.2736 39.8607 46.4247 39.8166 46.6005C39.7948 46.6876 39.7903 46.7781 39.8035 46.8669C39.8166 46.9556 39.8471 47.041 39.8933 47.118C39.9394 47.195 40.0002 47.2621 40.0723 47.3156C40.1444 47.3691 40.2263 47.4078 40.3133 47.4297C40.4892 47.4738 40.6753 47.4462 40.8308 47.353ZM42.6662 48.6801C42.781 48.6801 42.8949 48.6874 43.0079 48.7019C43.895 48.6018 44.7874 48.8383 45.5085 49.3647C46.2295 49.8912 46.7267 50.6691 46.9015 51.5446C46.9168 51.6292 46.9132 51.7161 46.8911 51.7991C46.869 51.8821 46.8288 51.9593 46.7735 52.025C46.7182 52.0908 46.649 52.1436 46.571 52.1796C46.493 52.2156 46.408 52.234 46.3221 52.2334H46.1198C46.1745 52.0448 46.2013 51.843 46.2004 51.628C46.2004 50.3624 45.1891 49.3525 43.9331 49.3525C43.5821 49.3513 43.2356 49.4315 42.9207 49.5867C42.6058 49.7418 42.3311 49.9678 42.1181 50.2468C41.9051 50.5258 41.7596 50.8504 41.693 51.195C41.6264 51.5397 41.6405 51.8951 41.7342 52.2334H40.6408C40.5342 52.2345 40.4288 52.2113 40.3325 52.1655C40.2363 52.1197 40.1518 52.0525 40.0855 51.969C40.0191 51.8856 39.9728 51.7881 39.9499 51.684C39.927 51.5798 39.9282 51.4719 39.9534 51.3683V51.3642L39.8304 51.2767C39.2837 50.8667 39.1471 50.1834 39.9671 49.6367C40.7871 48.9534 41.7096 48.6801 42.6662 48.6801ZM47.1708 55.9179L48.5251 51.5856C48.8299 50.6276 50.1829 50.6276 50.474 51.5856L51.827 55.9179C51.8899 56.1246 51.9034 56.3432 51.8664 56.5561C51.8294 56.769 51.7429 56.9702 51.6139 57.1436C51.485 57.317 51.3171 57.4576 51.1239 57.5543C50.9306 57.6509 50.7174 57.7009 50.5013 57.7001H48.4978C48.2812 57.7023 48.0672 57.6534 47.8732 57.5571C47.6791 57.4609 47.5106 57.3202 47.3814 57.1464C47.2521 56.9726 47.1658 56.7708 47.1294 56.5573C47.093 56.3438 47.1077 56.1247 47.1721 55.9179M49.4995 59.6066C48.2728 59.6147 47.0621 59.3279 45.9695 58.7702C45.621 58.5925 45.2451 58.9861 45.4652 59.3032C45.9068 59.9682 46.5066 60.5132 47.2107 60.8893C47.9148 61.2654 48.7013 61.461 49.4995 61.4584C50.2978 61.461 51.0843 61.2654 51.7884 60.8893C52.4925 60.5132 53.0923 59.9682 53.5339 59.3032C53.7526 58.9738 53.3781 58.5925 53.0296 58.7702C51.937 59.3279 50.7263 59.6147 49.4995 59.6066ZM56.1347 48.7211C56.2914 48.6937 56.4486 48.6801 56.6062 48.6801C57.5629 48.6801 58.4854 48.9534 59.3054 49.6367C60.1254 50.1834 59.9887 50.8667 59.442 51.2767L59.0662 51.5391C59.0653 51.6312 59.0463 51.7222 59.0102 51.8069C58.9742 51.8916 58.9218 51.9684 58.856 52.0329C58.7903 52.0974 58.7125 52.1483 58.6271 52.1827C58.5417 52.2171 58.4503 52.2343 58.3583 52.2334H57.2649C57.3586 51.895 57.3727 51.5395 57.306 51.1947C57.2393 50.8499 57.0937 50.5253 56.8806 50.2462C56.6674 49.9672 56.3926 49.7413 56.0775 49.5862C55.7624 49.4311 55.4158 49.3511 55.0646 49.3525C54.7658 49.351 54.4697 49.4089 54.1935 49.5229C53.9173 49.6369 53.6665 49.8046 53.4557 50.0163C53.2449 50.228 53.0782 50.4795 52.9654 50.7562C52.8526 51.0329 52.796 51.3292 52.7987 51.628C52.7987 51.843 52.826 52.0448 52.8807 52.2334H52.677C52.5911 52.234 52.5061 52.2156 52.4281 52.1796C52.3501 52.1436 52.2809 52.0908 52.2256 52.025C52.1703 51.9593 52.1301 51.8821 52.108 51.7991C52.0859 51.7161 52.0823 51.6292 52.0976 51.5446C52.2751 50.6434 52.7947 49.846 53.5474 49.3196C54.3001 48.7932 55.2273 48.5787 56.1347 48.7211Z" fill="#E6F0C4"/>
<path d="M43.9344 50.3348C44.1577 50.3342 44.3773 50.3914 44.572 50.5008C44.7666 50.6102 44.9297 50.7682 45.0452 50.9592C45.1608 51.1503 45.2249 51.368 45.2314 51.5913C45.2379 51.8145 45.1866 52.0356 45.0824 52.2331H42.7877C42.6926 52.0453 42.6421 51.8381 42.6401 51.6276C42.6401 51.3925 42.703 51.1712 42.8137 50.9812C42.8609 51.0555 42.931 51.1123 43.0135 51.143C43.096 51.1737 43.1862 51.1765 43.2705 51.1511C43.3547 51.1257 43.4283 51.0735 43.4801 51.0023C43.5319 50.9312 43.5589 50.845 43.5572 50.7571C43.5574 50.6976 43.5446 50.6388 43.5199 50.5848C43.4951 50.5307 43.4588 50.4827 43.4137 50.4441C43.5778 50.3721 43.7551 50.3349 43.9344 50.3348ZM53.758 51.6276C53.7578 51.372 53.834 51.1222 53.9766 50.9101C54.0354 51.0605 54.1816 51.167 54.3511 51.167C54.4378 51.1662 54.5219 51.1378 54.5915 51.0861C54.661 51.0344 54.7124 50.9619 54.7382 50.8792C54.764 50.7964 54.763 50.7076 54.7352 50.6255C54.7073 50.5434 54.6542 50.4722 54.5834 50.4222C54.8295 50.3255 55.0993 50.3065 55.3565 50.3678C55.6138 50.429 55.8461 50.5676 56.0222 50.7648C56.1983 50.9621 56.3097 51.2085 56.3415 51.471C56.3734 51.7335 56.324 51.9994 56.2002 52.2331H53.9083C53.8122 52.0455 53.7607 51.8383 53.758 51.6276ZM58.872 46.1801L58.8693 46.1774L58.8624 46.1733L58.8378 46.1596L58.7558 46.1131C58.3269 45.8866 57.8787 45.6987 57.4165 45.5514C56.5487 45.2754 55.3378 45.043 54.0299 45.274C53.8572 45.3114 53.7057 45.4142 53.6073 45.561C53.5088 45.7077 53.4709 45.8868 53.5017 46.0608C53.5325 46.2348 53.6294 46.3901 53.7723 46.4942C53.9151 46.5982 54.0927 46.6429 54.2677 46.6188C55.2831 46.4411 56.2589 46.6188 56.9997 46.8539C57.4008 46.9818 57.7892 47.1465 58.16 47.3459L58.1709 47.3527C58.3264 47.4458 58.5125 47.4734 58.6884 47.4293C58.8642 47.3852 59.0153 47.2731 59.1084 47.1176C59.2016 46.9621 59.2292 46.776 59.1851 46.6002C59.141 46.4243 59.0275 46.2732 58.872 46.1801Z" fill="#E6F0C4"/>
<path d="M41.5569 33.0754C42.4627 31.8148 43.6555 30.7877 45.0366 30.0791C46.4177 29.3704 47.9476 29.0006 49.5 29C51.0523 29.0006 52.5822 29.3704 53.9633 30.0791C55.3445 30.7877 56.5372 31.8148 57.443 33.0754L57.4567 33.0945L57.4936 33.1C58.7769 33.0998 60.0477 33.3524 61.2335 33.8434C62.4192 34.3344 63.4965 35.0542 64.4041 35.9616C65.3116 36.869 66.0315 37.9463 66.5226 39.1319C67.0138 40.3175 67.2666 41.5883 67.2666 42.8717V42.899C67.2666 44.2329 67.6534 45.5435 68.3818 46.6601C69.4341 48.2003 69.9999 50.264 69.9999 52.0529C70.0054 53.5124 69.6792 54.9541 69.046 56.2691C69.6378 57.5169 69.9999 58.9259 69.9999 60.4333C69.9999 65.7264 65.7264 70 60.4333 70H38.5667C33.2736 70 29 65.7264 29 60.4333C29 58.9259 29.3622 57.5169 29.9539 56.2691L29.9526 56.265C29.3292 54.9481 29.004 53.5099 29 52.0529C28.9984 50.1461 29.5547 48.2805 30.6004 46.686L30.6072 46.6751L30.6154 46.6628C31.3453 45.5432 31.7337 44.2355 31.7333 42.899V42.8717C31.7333 40.2801 32.7628 37.7946 34.5954 35.9621C36.4279 34.1295 38.9134 33.1 41.505 33.1L41.5364 33.0904L41.5514 33.0809L41.5555 33.0781L41.5569 33.0754ZM51.3832 43.4648C49.6772 43.4675 47.9961 43.0555 46.4848 42.2641C44.9735 41.4727 43.6772 40.3257 42.7076 38.922L42.5054 39.4003C41.8709 40.9594 40.6613 42.215 39.127 42.9072L39.0313 42.9427C38.2605 43.1641 37.7562 43.7586 37.4405 44.7194C37.1207 45.6966 37.0346 46.958 37.0674 48.3014C37.0713 48.4499 37.0267 48.5955 36.9404 48.7163C36.8541 48.8372 36.7308 48.9266 36.5891 48.9711C35.8405 49.2066 35.1958 49.6926 34.7632 50.3473C34.3306 51.0021 34.1365 51.7857 34.2134 52.5667C34.2904 53.3476 34.6337 54.0783 35.1858 54.6361C35.7378 55.1938 36.465 55.5446 37.2451 55.6295C37.3841 55.6443 37.5152 55.7013 37.6208 55.793C37.7264 55.8846 37.8013 56.0064 37.8355 56.142C39.1653 61.4447 43.857 64.875 49.4836 64.875C55.147 64.875 59.8634 61.3996 61.1576 56.0354C61.1933 55.8869 61.2778 55.7547 61.3974 55.6599C61.517 55.565 61.665 55.5129 61.8177 55.512C62.6794 55.5091 63.5082 55.1807 64.1381 54.5926C64.7679 54.0045 65.1523 53.2001 65.2142 52.3406C65.276 51.4811 65.0108 50.63 64.4717 49.9578C63.9326 49.2855 63.1594 48.8418 62.307 48.7155C62.1402 48.6907 61.9885 48.6051 61.881 48.4752C61.7735 48.3453 61.7179 48.1802 61.7248 48.0117L61.7999 46.179C61.733 44.7987 61.2177 44.1645 60.7667 43.8516C60.4195 43.6122 60.0103 43.4783 59.5887 43.4662L51.3832 43.4648Z" fill="#E6F0C4"/>
</svg>
